<svg id="Layer_1" data-name="Layer 1" xmlns="http://www.w3.org/2000/svg" viewBox="0 0 97.41 247.31"><defs><style>.cls-1{font-size:71.09px;}.cls-1,.cls-2{font-family:Gadugi-Bold, Gadugi;font-weight:700;}.cls-2{font-size:40.32px;}.cls-3{letter-spacing:-0.02em;}.cls-4{fill:none;stroke:#000;stroke-miterlimit:10;}</style></defs><title>calendarlogo</title><path d="M40.64,56.54A1.57,1.57,0,0,0,39.07,55H33.61A1.57,1.57,0,0,0,32,56.54V62a1.57,1.57,0,0,0,1.57,1.57h5.47A1.57,1.57,0,0,0,40.64,62V56.54Z" transform="translate(-1.29 -1.28)"/><path d="M54.3,56.54A1.56,1.56,0,0,0,52.73,55H47.27a1.57,1.57,0,0,0-1.57,1.56V62a1.57,1.57,0,0,0,1.57,1.57h5.47A1.57,1.57,0,0,0,54.3,62Z" transform="translate(-1.29 -1.28)"/><path d="M68,56.54A1.57,1.57,0,0,0,66.39,55H60.93a1.57,1.57,0,0,0-1.57,1.56V62a1.57,1.57,0,0,0,1.57,1.57h5.47A1.57,1.57,0,0,0,68,62Z" transform="translate(-1.29 -1.28)"/><path d="M40.64,70.2a1.57,1.57,0,0,0-1.57-1.57H33.61A1.56,1.56,0,0,0,32,70.2v5.46a1.57,1.57,0,0,0,1.57,1.57h5.47a1.57,1.57,0,0,0,1.57-1.57V70.2Z" transform="translate(-1.29 -1.28)"/><path d="M54.3,70.2a1.56,1.56,0,0,0-1.56-1.57H47.27A1.56,1.56,0,0,0,45.7,70.2v5.46a1.57,1.57,0,0,0,1.57,1.57h5.47a1.57,1.57,0,0,0,1.56-1.57Z" transform="translate(-1.29 -1.28)"/><path d="M68,70.2a1.56,1.56,0,0,0-1.56-1.57H60.93a1.57,1.57,0,0,0-1.57,1.57v5.46a1.57,1.57,0,0,0,1.57,1.57h5.47A1.57,1.57,0,0,0,68,75.67V70.2Z" transform="translate(-1.29 -1.28)"/><path d="M77.73,26.16V34.5a6.82,6.82,0,0,1-6.83,6.81H66.59a6.85,6.85,0,0,1-6.87-6.81V26.13H40.29V34.5a6.85,6.85,0,0,1-6.87,6.81H29.1a6.82,6.82,0,0,1-6.83-6.81V26.16a6.21,6.21,0,0,0-6,6.18V81.26a6.22,6.22,0,0,0,6.19,6.22h55.1a6.22,6.22,0,0,0,6.19-6.22V32.34A6.21,6.21,0,0,0,77.73,26.16Zm-2,52.05a2.67,2.67,0,0,1-2.67,2.67H26.83a2.67,2.67,0,0,1-2.67-2.67V52.94a2.67,2.67,0,0,1,2.67-2.67H73.06a2.67,2.67,0,0,1,2.67,2.67V78.21Z" transform="translate(-1.29 -1.28)"/><path d="M29.09,36.84h4.26a2.34,2.34,0,0,0,2.34-2.34V20.82a2.34,2.34,0,0,0-2.34-2.34H29.09a2.34,2.34,0,0,0-2.34,2.34V34.5A2.34,2.34,0,0,0,29.09,36.84Z" transform="translate(-1.29 -1.28)"/><path d="M66.53,36.84H70.8a2.34,2.34,0,0,0,2.34-2.34V20.82a2.34,2.34,0,0,0-2.34-2.34H66.53a2.34,2.34,0,0,0-2.34,2.34V34.5A2.34,2.34,0,0,0,66.53,36.84Z" transform="translate(-1.29 -1.28)"/><text class="cls-1" transform="translate(5.96 192.65) scale(0.64 1)">CAL</text><text class="cls-2" transform="translate(7.01 222.73) scale(0.6 1)">EN<tspan class="cls-3" x="53.31" y="0">D</tspan><tspan x="82.42" y="0">AR</tspan></text><rect class="cls-4" x="0.5" y="0.5" width="96.41" height="246.31"/></svg>