<svg id="Layer_1" data-name="Layer 1" xmlns="http://www.w3.org/2000/svg" viewBox="0 0 97.41 250.32"><defs><style>.cls-1{fill:none;stroke:#000;stroke-miterlimit:10;}.cls-2{font-size:114.42px;font-family:Gadugi-Bold, Gadugi;font-weight:700;}</style></defs><title>foodlogo</title><rect class="cls-1" x="0.5" y="0.5" width="96.41" height="246.31"/><text x="-1.29" y="-1.28"></text><text class="cls-2" transform="translate(5.45 223) scale(0.28 1)">FOOD</text><g id="_Group_" data-name="&lt;Group&gt;"><path id="_Path_" data-name="&lt;Path&gt;" d="M37.58,61q-.43,0-.86,0a10,10,0,0,1-2.3-.29L17.05,78.44a2.25,2.25,0,0,0,0,3.14l4.49,4.57a2.15,2.15,0,0,0,3.08,0L45.5,64.93l-3.87-4.25Z" transform="translate(-1.29 -1.28)"/><path id="_Path_2" data-name="&lt;Path&gt;" d="M83.28,32.73a2.06,2.06,0,0,0-2.95,0L69.08,44.18a2.69,2.69,0,0,1-3.85,0,2.81,2.81,0,0,1,0-3.92l11.2-11.39a2.24,2.24,0,0,0,0-3.12,2.15,2.15,0,0,0-3.07,0L62.16,37.14a2.69,2.69,0,0,1-3.85,0,2.8,2.8,0,0,1,0-3.92L69.56,21.78a2.15,2.15,0,0,0,0-3,2.06,2.06,0,0,0-3,0L53.95,31.65a12,12,0,0,0-3,11.4l8.49,8.63a11.57,11.57,0,0,0,11.21-3.08L83.28,35.74A2.15,2.15,0,0,0,83.28,32.73Z" transform="translate(-1.29 -1.28)"/><path id="_Path_3" data-name="&lt;Path&gt;" d="M21.79,19.94a2.27,2.27,0,0,0-2-.65,2.3,2.3,0,0,0-1.68,1.29A20.61,20.61,0,0,0,22,43.82l10.77,11a5.59,5.59,0,0,0,4,1.68l.48,0,6.25-.54L70.71,85.81a2.28,2.28,0,0,0,1.64.75h0A2.29,2.29,0,0,0,74,85.88l4.67-4.75a2.37,2.37,0,0,0,0-3.3Z" transform="translate(-1.29 -1.28)"/></g></svg>