<svg id="Layer_1" data-name="Layer 1" xmlns="http://www.w3.org/2000/svg" viewBox="0 0 97.41 247.31"><defs><style>.cls-1{fill:none;stroke:#000;stroke-miterlimit:10;}.cls-2{font-size:58.05px;}.cls-2,.cls-3{font-family:Gadugi-Bold, Gadugi;font-weight:700;}.cls-3{font-size:57.22px;letter-spacing:-0.02em;}.cls-4{letter-spacing:0em;}</style></defs><title>freelogo</title><rect class="cls-1" x="0.5" y="0.5" width="96.41" height="246.31"/><path d="M51.32,51.29a3.44,3.44,0,0,0-3.41,3.08l4.94-2.74A3.34,3.34,0,0,0,51.32,51.29Z" transform="translate(-1.29 -1.28)"/><path d="M64,51.29a3.44,3.44,0,0,0-3.4,3l4.9-2.65A3.35,3.35,0,0,0,64,51.29Z" transform="translate(-1.29 -1.28)"/><path d="M79.44,59.36c2.1-1.36,4.48-2.89,4.48-5.46s-2.38-4.11-4.48-5.46a12.15,12.15,0,0,1-2.34-1.76,12,12,0,0,1,1.18-2.83c1.12-2.18,2.38-4.66,1.13-6.82s-4.07-2.33-6.53-2.45a11.91,11.91,0,0,1-3-.37,11.93,11.93,0,0,1-.37-3c-.12-2.47-.26-5.27-2.45-6.53a3.94,3.94,0,0,0-2-.52,11.34,11.34,0,0,0-4.82,1.64A11.17,11.17,0,0,1,57.4,27a12.25,12.25,0,0,1-1.76-2.34c-1.36-2.1-2.89-4.48-5.46-4.48s-4.11,2.38-5.46,4.48A12.22,12.22,0,0,1,43,27a11.13,11.13,0,0,1-2.83-1.18,11.34,11.34,0,0,0-4.82-1.64,3.94,3.94,0,0,0-2,.52c-2.19,1.27-2.33,4.06-2.45,6.53a11.92,11.92,0,0,1-.37,3,11.93,11.93,0,0,1-3,.37C25,34.69,22.23,34.83,21,37s0,4.64,1.13,6.82a12,12,0,0,1,1.18,2.83,12.14,12.14,0,0,1-2.34,1.76c-2.1,1.36-4.48,2.89-4.48,5.46s2.38,4.11,4.48,5.46a12.14,12.14,0,0,1,2.34,1.76,12,12,0,0,1-1.18,2.83C21,66.13,19.71,68.61,21,70.77S25,73.1,27.5,73.22a11.92,11.92,0,0,1,3,.37,11.93,11.93,0,0,1,.37,3c.12,2.47.26,5.27,2.45,6.53a3.94,3.94,0,0,0,2,.52A11.34,11.34,0,0,0,40.13,82,11.16,11.16,0,0,1,43,80.81a12.24,12.24,0,0,1,1.76,2.34c1.36,2.1,2.89,4.48,5.46,4.48s4.11-2.38,5.46-4.48a12.22,12.22,0,0,1,1.76-2.34A11.14,11.14,0,0,1,60.24,82a11.34,11.34,0,0,0,4.82,1.64,3.94,3.94,0,0,0,2-.52c2.19-1.27,2.33-4.06,2.45-6.53a11.93,11.93,0,0,1,.37-3,11.93,11.93,0,0,1,3-.37c2.47-.12,5.27-.26,6.53-2.45s0-4.64-1.13-6.82a12,12,0,0,1-1.18-2.83A12.15,12.15,0,0,1,79.44,59.36Zm-42-15.68A1.37,1.37,0,0,1,36.12,45h-.47a2.12,2.12,0,0,0-1.73.79,2.59,2.59,0,0,0-.68,1.59v.92h2.13a1.37,1.37,0,0,1,1.37,1.37V50a1.37,1.37,0,0,1-1.37,1.37H33.25v8.3a1.37,1.37,0,0,1-1.37,1.37h-.37a1.37,1.37,0,0,1-1.37-1.37V47.77a5.73,5.73,0,0,1,1.52-4.14,5.32,5.32,0,0,1,4-1.58h.47a1.37,1.37,0,0,1,1.37,1.37v.26ZM44,51.17a3,3,0,0,0-2.35,1.11A4.4,4.4,0,0,0,40.76,55v4.67a1.37,1.37,0,0,1-1.37,1.37H39a1.37,1.37,0,0,1-1.37-1.37v-10A1.37,1.37,0,0,1,39,48.35h.38a1.37,1.37,0,0,1,1.31,1,5.92,5.92,0,0,1,3.16-1.21,1.37,1.37,0,0,1,1.46,1.36v.32A1.37,1.37,0,0,1,44,51.17Zm13.37,6a6.41,6.41,0,0,1-1.46,2.16,6.49,6.49,0,1,1-.55-9.85,6.68,6.68,0,0,1,1.35,1.4,1.37,1.37,0,0,1-.44,2l-7.48,4.15.08.08a3.43,3.43,0,0,0,4.85,0,3.36,3.36,0,0,0,.73-1.05,1.37,1.37,0,0,1,1.45-.82l.4.06a1.37,1.37,0,0,1,1.08,1.86Zm12.73,0a6.41,6.41,0,0,1-1.46,2.16A6.54,6.54,0,1,1,64,48.17a6.68,6.68,0,0,1,4,1.29,5.13,5.13,0,0,1,1.33,1.34l.07.1a1.37,1.37,0,0,1-.45,2l-7.27,3.93a1.39,1.39,0,0,1-.29.12l.17.18a3.43,3.43,0,0,0,4.85,0,3.36,3.36,0,0,0,.73-1.05,1.37,1.37,0,0,1,1.45-.82l.4.06a1.37,1.37,0,0,1,1.08,1.86Z" transform="translate(-1.29 -1.28)"/><text class="cls-2" transform="translate(5.03 183.7) scale(0.68 1)">FREE</text><text class="cls-3" transform="translate(7.91 224.99) scale(0.28 1)">A<tspan class="cls-4" x="39.37" y="0">CTIVITIES</tspan></text></svg>