<svg id="Layer_1" data-name="Layer 1" xmlns="http://www.w3.org/2000/svg" viewBox="0 0 97.41 247.31"><defs><style>.cls-1{fill:none;stroke:#000;stroke-miterlimit:10;}.cls-2{font-size:47.24px;}.cls-2,.cls-3{font-family:Gadugi-Bold, Gadugi;font-weight:700;}.cls-3{font-size:66.7px;}</style></defs><title>nightlifelogo</title><rect class="cls-1" x="0.5" y="0.5" width="96.41" height="246.31"/><path d="M45.59,19.54a30.08,30.08,0,0,0,0,60.17l.76,0-2.16-2.45c-.08-.12-1.82-3,2-6.2,2.73-2.27,6.65-.25,8.76,1.17V57.86A12.49,12.49,0,1,1,58,48.36a4.41,4.41,0,0,1,4.32.69V47.4A4.57,4.57,0,0,1,71.48,47a4.38,4.38,0,0,1,4-.84A30.08,30.08,0,0,0,45.59,19.54Zm0,13.48A16.62,16.62,0,0,0,29,49.62a1.19,1.19,0,0,1-2.39,0,19,19,0,0,1,19-19,1.19,1.19,0,0,1,0,2.39Zm0-6.83A23.46,23.46,0,0,0,22.16,49.62a1.19,1.19,0,1,1-2.39,0A25.84,25.84,0,0,1,45.59,23.81a1.19,1.19,0,0,1,0,2.39Z" transform="translate(-1.29 -1.28)"/><path d="M41.44,49.62a4.15,4.15,0,1,0,4.15-4.15A4.15,4.15,0,0,0,41.44,49.62Z" transform="translate(-1.29 -1.28)"/><path d="M77.1,56.88V50.56a2.79,2.79,0,1,0-5.58,0V64.42H69.73v-17a2.79,2.79,0,1,0-5.58,0v17H62.36V52.66a2.79,2.79,0,0,0-5.58,0V75.95l-1.48-1.27c-.05,0-5.3-4.44-7.93-2.26-2.41,2-1.82,3.55-1.68,3.83l2.93,3.32,7.67,8.69h28.2V56.88a2.79,2.79,0,1,0-5.58,0v7.54H77.1V56.88Z" transform="translate(-1.29 -1.28)"/><text class="cls-2" transform="translate(5.96 177.16) scale(0.57 1)">NIGHT</text><text class="cls-3" transform="translate(4.53 226.5) scale(0.7 1)">LIFE</text></svg>